<?xml version="1.0" encoding="UTF-8" standalone="no"?>
<!DOCTYPE svg PUBLIC "-//W3C//DTD SVG 1.1//EN"
 "http://www.w3.org/Graphics/SVG/1.1/DTD/svg11.dtd">
<!-- Generated by graphviz version 2.44.0 (20200408.0750)
 -->
<!-- Title: models_diagram Pages: 1 -->
<svg width="586pt" height="158pt"
 viewBox="0.00 0.00 586.34 158.00" xmlns="http://www.w3.org/2000/svg" xmlns:xlink="http://www.w3.org/1999/xlink">
<g id="graph0" class="graph" transform="scale(1 1) rotate(0) translate(4 154)">
<title>models_diagram</title>
<polygon fill="transparent" stroke="transparent" points="-4,4 -4,-154 582.34,-154 582.34,4 -4,4"/>
<!-- _diagram_info -->
<g id="node1" class="node">
<title>_diagram_info</title>
<text text-anchor="start" x="8" y="-135.6" font-family="Times,serif" font-size="13.00">Models diagram</text>
<text text-anchor="start" x="8" y="-121.6" font-family="Times,serif" font-size="13.00">Date: May 15 2020 &#45; 18:28</text>
<text text-anchor="start" x="8" y="-107.6" font-family="Times,serif" font-size="13.00">Migration version: 20200515143351</text>
<text text-anchor="start" x="8" y="-93.6" font-family="Times,serif" font-size="13.00">Generated by RailRoady 1.5.3</text>
<text text-anchor="start" x="8" y="-79.6" font-family="Times,serif" font-size="13.00">http://railroady.prestonlee.com</text>
</g>
<!-- Payment -->
<g id="node2" class="node">
<title>Payment</title>
<ellipse fill="none" stroke="black" cx="202" cy="-18" rx="42.49" ry="18"/>
<text text-anchor="middle" x="202" y="-14.3" font-family="Times,serif" font-size="14.00">Payment</text>
</g>
<!-- ParkingSpot -->
<g id="node3" class="node">
<title>ParkingSpot</title>
<ellipse fill="none" stroke="black" cx="316" cy="-18" rx="53.89" ry="18"/>
<text text-anchor="middle" x="316" y="-14.3" font-family="Times,serif" font-size="14.00">ParkingSpot</text>
</g>
<!-- Spot -->
<g id="node4" class="node">
<title>Spot</title>
<ellipse fill="none" stroke="black" cx="259" cy="-111" rx="27" ry="18"/>
<text text-anchor="middle" x="259" y="-107.3" font-family="Times,serif" font-size="14.00">Spot</text>
</g>
<!-- Spot&#45;&gt;Payment -->
<g id="edge1" class="edge">
<title>Spot&#45;&gt;Payment</title>
<path fill="none" stroke="#d9f49e" d="M244.7,-87.18C236.54,-74.14 226.29,-57.78 217.87,-44.34"/>
<ellipse fill="none" stroke="#d9f49e" cx="246.95" cy="-90.76" rx="4" ry="4"/>
<polygon fill="#d9f49e" stroke="#d9f49e" points="217.7,-44.07 216.21,-33.2 215.05,-39.83 212.39,-35.59 212.39,-35.59 212.39,-35.59 215.05,-39.83 208.58,-37.98 217.7,-44.07 217.7,-44.07"/>
</g>
<!-- Spot&#45;&gt;ParkingSpot -->
<g id="edge2" class="edge">
<title>Spot&#45;&gt;ParkingSpot</title>
<path fill="none" stroke="#a4d9de" d="M273.27,-87.22C281.38,-74.28 291.55,-58.03 299.94,-44.64"/>
<ellipse fill="none" stroke="#a4d9de" cx="271.05" cy="-90.76" rx="4" ry="4"/>
<polygon fill="#a4d9de" stroke="#a4d9de" points="300.1,-44.38 309.23,-38.29 302.76,-40.14 305.41,-35.9 305.41,-35.9 305.41,-35.9 302.76,-40.14 301.6,-33.51 300.1,-44.38 300.1,-44.38"/>
</g>
<!-- Vehicle -->
<g id="node5" class="node">
<title>Vehicle</title>
<ellipse fill="none" stroke="black" cx="425" cy="-18" rx="37.09" ry="18"/>
<text text-anchor="middle" x="425" y="-14.3" font-family="Times,serif" font-size="14.00">Vehicle</text>
</g>
<!-- Profile -->
<g id="node6" class="node">
<title>Profile</title>
<ellipse fill="none" stroke="black" cx="514" cy="-18" rx="34.39" ry="18"/>
<text text-anchor="middle" x="514" y="-14.3" font-family="Times,serif" font-size="14.00">Profile</text>
</g>
<!-- ApplicationRecord -->
<g id="node7" class="node">
<title>ApplicationRecord</title>
<ellipse fill="none" stroke="black" cx="501" cy="-111" rx="77.19" ry="18"/>
<text text-anchor="middle" x="501" y="-107.3" font-family="Times,serif" font-size="14.00">ApplicationRecord</text>
</g>
<!-- User -->
<g id="node8" class="node">
<title>User</title>
<ellipse fill="none" stroke="black" cx="378" cy="-111" rx="27.1" ry="18"/>
<text text-anchor="middle" x="378" y="-107.3" font-family="Times,serif" font-size="14.00">User</text>
</g>
<!-- User&#45;&gt;Payment -->
<g id="edge5" class="edge">
<title>User&#45;&gt;Payment</title>
<path fill="none" stroke="#00381a" d="M349.9,-95.47C319.21,-79.6 270.02,-54.17 236.88,-37.04"/>
<ellipse fill="none" stroke="#00381a" cx="353.57" cy="-97.37" rx="4" ry="4"/>
<polygon fill="#00381a" stroke="#00381a" points="236.87,-37.03 230.06,-28.44 232.43,-34.73 227.99,-32.44 227.99,-32.44 227.99,-32.44 232.43,-34.73 225.92,-36.44 236.87,-37.03 236.87,-37.03"/>
</g>
<!-- User&#45;&gt;ParkingSpot -->
<g id="edge6" class="edge">
<title>User&#45;&gt;ParkingSpot</title>
<path fill="none" stroke="#de09ad" d="M362.48,-87.22C353.58,-74.15 342.38,-57.72 333.21,-44.26"/>
<ellipse fill="none" stroke="#de09ad" cx="364.95" cy="-90.84" rx="4" ry="4"/>
<polygon fill="#de09ad" stroke="#de09ad" points="333.15,-44.17 331.24,-33.37 330.33,-40.04 327.52,-35.9 327.52,-35.9 327.52,-35.9 330.33,-40.04 323.8,-38.44 333.15,-44.17 333.15,-44.17"/>
</g>
<!-- User&#45;&gt;Vehicle -->
<g id="edge4" class="edge">
<title>User&#45;&gt;Vehicle</title>
<path fill="none" stroke="#4d01ed" d="M390.21,-86.36C396.81,-73.58 404.97,-57.79 411.72,-44.71"/>
<ellipse fill="none" stroke="#4d01ed" cx="388.24" cy="-90.18" rx="4" ry="4"/>
<polygon fill="#4d01ed" stroke="#4d01ed" points="411.76,-44.63 420.35,-37.81 414.06,-40.19 416.35,-35.74 416.35,-35.74 416.35,-35.74 414.06,-40.19 412.35,-33.68 411.76,-44.63 411.76,-44.63"/>
</g>
<!-- User&#45;&gt;Profile -->
<g id="edge3" class="edge">
<title>User&#45;&gt;Profile</title>
<path fill="none" stroke="#96b959" d="M396.5,-88.7C402.11,-82.9 408.52,-76.88 415,-72 435.44,-56.62 460.94,-43.08 480.94,-33.53"/>
<ellipse fill="none" stroke="#96b959" cx="393.49" cy="-91.92" rx="4" ry="4"/>
<ellipse fill="#96b959" stroke="#96b959" cx="484.7" cy="-31.77" rx="4" ry="4"/>
</g>
</g>
</svg>
