<?xml version="1.0" encoding="UTF-8" standalone="no"?>
<!DOCTYPE svg PUBLIC "-//W3C//DTD SVG 1.1//EN"
 "http://www.w3.org/Graphics/SVG/1.1/DTD/svg11.dtd">
<!-- Generated by graphviz version 2.44.0 (20200408.0750)
 -->
<!-- Title: models_diagram Pages: 1 -->
<svg width="822pt" height="393pt"
 viewBox="0.00 0.00 822.00 393.00" xmlns="http://www.w3.org/2000/svg" xmlns:xlink="http://www.w3.org/1999/xlink">
<g id="graph0" class="graph" transform="scale(1 1) rotate(0) translate(4 389)">
<title>models_diagram</title>
<polygon fill="transparent" stroke="transparent" points="-4,4 -4,-389 818,-389 818,4 -4,4"/>
<!-- _diagram_info -->
<g id="node1" class="node">
<title>_diagram_info</title>
<text text-anchor="start" x="8" y="-326.1" font-family="Times,serif" font-size="13.00">Models diagram</text>
<text text-anchor="start" x="8" y="-312.1" font-family="Times,serif" font-size="13.00">Date: May 15 2020 &#45; 18:28</text>
<text text-anchor="start" x="8" y="-298.1" font-family="Times,serif" font-size="13.00">Migration version: 20200515143351</text>
<text text-anchor="start" x="8" y="-284.1" font-family="Times,serif" font-size="13.00">Generated by RailRoady 1.5.3</text>
<text text-anchor="start" x="8" y="-270.1" font-family="Times,serif" font-size="13.00">http://railroady.prestonlee.com</text>
</g>
<!-- Payment -->
<g id="node2" class="node">
<title>Payment</title>
<path fill="none" stroke="black" d="M221.5,-30.5C221.5,-30.5 328.5,-30.5 328.5,-30.5 334.5,-30.5 340.5,-36.5 340.5,-42.5 340.5,-42.5 340.5,-139.5 340.5,-139.5 340.5,-145.5 334.5,-151.5 328.5,-151.5 328.5,-151.5 221.5,-151.5 221.5,-151.5 215.5,-151.5 209.5,-145.5 209.5,-139.5 209.5,-139.5 209.5,-42.5 209.5,-42.5 209.5,-36.5 215.5,-30.5 221.5,-30.5"/>
<text text-anchor="middle" x="275" y="-136.3" font-family="Times,serif" font-size="14.00">Payment</text>
<polyline fill="none" stroke="black" points="209.5,-128.5 340.5,-128.5 "/>
<text text-anchor="start" x="217.5" y="-113.3" font-family="Times,serif" font-size="14.00">id :bigint</text>
<text text-anchor="start" x="217.5" y="-98.3" font-family="Times,serif" font-size="14.00">amount :int</text>
<text text-anchor="start" x="217.5" y="-83.3" font-family="Times,serif" font-size="14.00">spot_id :int</text>
<text text-anchor="start" x="217.5" y="-68.3" font-family="Times,serif" font-size="14.00">user_id :int</text>
<text text-anchor="start" x="217.5" y="-53.3" font-family="Times,serif" font-size="14.00">created_at :datetime</text>
<text text-anchor="start" x="217.5" y="-38.3" font-family="Times,serif" font-size="14.00">updated_at :datetime</text>
</g>
<!-- ParkingSpot -->
<g id="node3" class="node">
<title>ParkingSpot</title>
<path fill="none" stroke="black" d="M370.5,-0.5C370.5,-0.5 477.5,-0.5 477.5,-0.5 483.5,-0.5 489.5,-6.5 489.5,-12.5 489.5,-12.5 489.5,-169.5 489.5,-169.5 489.5,-175.5 483.5,-181.5 477.5,-181.5 477.5,-181.5 370.5,-181.5 370.5,-181.5 364.5,-181.5 358.5,-175.5 358.5,-169.5 358.5,-169.5 358.5,-12.5 358.5,-12.5 358.5,-6.5 364.5,-0.5 370.5,-0.5"/>
<text text-anchor="middle" x="424" y="-166.3" font-family="Times,serif" font-size="14.00">ParkingSpot</text>
<polyline fill="none" stroke="black" points="358.5,-158.5 489.5,-158.5 "/>
<text text-anchor="start" x="366.5" y="-143.3" font-family="Times,serif" font-size="14.00">updated_at :datetime</text>
<text text-anchor="start" x="366.5" y="-128.3" font-family="Times,serif" font-size="14.00">user_id :int</text>
<text text-anchor="start" x="366.5" y="-113.3" font-family="Times,serif" font-size="14.00">spot_id :int</text>
<text text-anchor="start" x="366.5" y="-98.3" font-family="Times,serif" font-size="14.00">vehicle_id :int</text>
<text text-anchor="start" x="366.5" y="-83.3" font-family="Times,serif" font-size="14.00">start :datetime</text>
<text text-anchor="start" x="366.5" y="-68.3" font-family="Times,serif" font-size="14.00">end :datetime</text>
<text text-anchor="start" x="366.5" y="-53.3" font-family="Times,serif" font-size="14.00">amount :int</text>
<text text-anchor="start" x="366.5" y="-38.3" font-family="Times,serif" font-size="14.00">paid :tinyint(1)</text>
<text text-anchor="start" x="366.5" y="-23.3" font-family="Times,serif" font-size="14.00">created_at :datetime</text>
<text text-anchor="start" x="366.5" y="-8.3" font-family="Times,serif" font-size="14.00">id :bigint</text>
</g>
<!-- Spot -->
<g id="node4" class="node">
<title>Spot</title>
<path fill="none" stroke="black" d="M244,-218.5C244,-218.5 374,-218.5 374,-218.5 380,-218.5 386,-224.5 386,-230.5 386,-230.5 386,-372.5 386,-372.5 386,-378.5 380,-384.5 374,-384.5 374,-384.5 244,-384.5 244,-384.5 238,-384.5 232,-378.5 232,-372.5 232,-372.5 232,-230.5 232,-230.5 232,-224.5 238,-218.5 244,-218.5"/>
<text text-anchor="middle" x="309" y="-369.3" font-family="Times,serif" font-size="14.00">Spot</text>
<polyline fill="none" stroke="black" points="232,-361.5 386,-361.5 "/>
<text text-anchor="start" x="240" y="-346.3" font-family="Times,serif" font-size="14.00">updated_at :datetime</text>
<text text-anchor="start" x="240" y="-331.3" font-family="Times,serif" font-size="14.00">name :varchar(255)</text>
<text text-anchor="start" x="240" y="-316.3" font-family="Times,serif" font-size="14.00">address :varchar(255)</text>
<text text-anchor="start" x="240" y="-301.3" font-family="Times,serif" font-size="14.00">count :int</text>
<text text-anchor="start" x="240" y="-286.3" font-family="Times,serif" font-size="14.00">description :varchar(255)</text>
<text text-anchor="start" x="240" y="-271.3" font-family="Times,serif" font-size="14.00">is_open :tinyint(1)</text>
<text text-anchor="start" x="240" y="-256.3" font-family="Times,serif" font-size="14.00">price_per_hour :int</text>
<text text-anchor="start" x="240" y="-241.3" font-family="Times,serif" font-size="14.00">created_at :datetime</text>
<text text-anchor="start" x="240" y="-226.3" font-family="Times,serif" font-size="14.00">id :bigint</text>
</g>
<!-- Spot&#45;&gt;Payment -->
<g id="edge1" class="edge">
<title>Spot&#45;&gt;Payment</title>
<path fill="none" stroke="#7dd4c8" d="M294.29,-210.27C291.64,-194.05 288.92,-177.36 286.39,-161.83"/>
<ellipse fill="none" stroke="#7dd4c8" cx="294.97" cy="-214.45" rx="4" ry="4"/>
<polygon fill="#7dd4c8" stroke="#7dd4c8" points="286.36,-161.67 289.19,-151.08 285.56,-156.74 284.75,-151.8 284.75,-151.8 284.75,-151.8 285.56,-156.74 280.31,-152.53 286.36,-161.67 286.36,-161.67"/>
</g>
<!-- Spot&#45;&gt;ParkingSpot -->
<g id="edge2" class="edge">
<title>Spot&#45;&gt;ParkingSpot</title>
<path fill="none" stroke="#46adb5" d="M358.21,-211.27C362.03,-204.36 365.89,-197.36 369.73,-190.39"/>
<ellipse fill="none" stroke="#46adb5" cx="356.22" cy="-214.89" rx="4" ry="4"/>
<polygon fill="#46adb5" stroke="#46adb5" points="369.75,-190.35 378.52,-183.77 372.17,-185.98 374.58,-181.6 374.58,-181.6 374.58,-181.6 372.17,-185.98 370.64,-179.43 369.75,-190.35 369.75,-190.35"/>
</g>
<!-- Vehicle -->
<g id="node5" class="node">
<title>Vehicle</title>
<path fill="none" stroke="black" d="M520,-30.5C520,-30.5 632,-30.5 632,-30.5 638,-30.5 644,-36.5 644,-42.5 644,-42.5 644,-139.5 644,-139.5 644,-145.5 638,-151.5 632,-151.5 632,-151.5 520,-151.5 520,-151.5 514,-151.5 508,-145.5 508,-139.5 508,-139.5 508,-42.5 508,-42.5 508,-36.5 514,-30.5 520,-30.5"/>
<text text-anchor="middle" x="576" y="-136.3" font-family="Times,serif" font-size="14.00">Vehicle</text>
<polyline fill="none" stroke="black" points="508,-128.5 644,-128.5 "/>
<text text-anchor="start" x="516" y="-113.3" font-family="Times,serif" font-size="14.00">id :bigint</text>
<text text-anchor="start" x="516" y="-98.3" font-family="Times,serif" font-size="14.00">user_id :int</text>
<text text-anchor="start" x="516" y="-83.3" font-family="Times,serif" font-size="14.00">name :varchar(255)</text>
<text text-anchor="start" x="516" y="-68.3" font-family="Times,serif" font-size="14.00">number :varchar(255)</text>
<text text-anchor="start" x="516" y="-53.3" font-family="Times,serif" font-size="14.00">created_at :datetime</text>
<text text-anchor="start" x="516" y="-38.3" font-family="Times,serif" font-size="14.00">updated_at :datetime</text>
</g>
<!-- Profile -->
<g id="node6" class="node">
<title>Profile</title>
<path fill="none" stroke="black" d="M674,-8C674,-8 802,-8 802,-8 808,-8 814,-14 814,-20 814,-20 814,-162 814,-162 814,-168 808,-174 802,-174 802,-174 674,-174 674,-174 668,-174 662,-168 662,-162 662,-162 662,-20 662,-20 662,-14 668,-8 674,-8"/>
<text text-anchor="middle" x="738" y="-158.8" font-family="Times,serif" font-size="14.00">Profile</text>
<polyline fill="none" stroke="black" points="662,-151 814,-151 "/>
<text text-anchor="start" x="670" y="-135.8" font-family="Times,serif" font-size="14.00">updated_at :datetime</text>
<text text-anchor="start" x="670" y="-120.8" font-family="Times,serif" font-size="14.00">user_id :int</text>
<text text-anchor="start" x="670" y="-105.8" font-family="Times,serif" font-size="14.00">first_name :varchar(255)</text>
<text text-anchor="start" x="670" y="-90.8" font-family="Times,serif" font-size="14.00">last_name :varchar(255)</text>
<text text-anchor="start" x="670" y="-75.8" font-family="Times,serif" font-size="14.00">age :int</text>
<text text-anchor="start" x="670" y="-60.8" font-family="Times,serif" font-size="14.00">gender :tinyint(1)</text>
<text text-anchor="start" x="670" y="-45.8" font-family="Times,serif" font-size="14.00">phone :varchar(255)</text>
<text text-anchor="start" x="670" y="-30.8" font-family="Times,serif" font-size="14.00">created_at :datetime</text>
<text text-anchor="start" x="670" y="-15.8" font-family="Times,serif" font-size="14.00">id :bigint</text>
</g>
<!-- ApplicationRecord -->
<g id="node7" class="node">
<title>ApplicationRecord</title>
<ellipse fill="none" stroke="black" cx="711" cy="-301.5" rx="77.19" ry="18"/>
<text text-anchor="middle" x="711" y="-297.8" font-family="Times,serif" font-size="14.00">ApplicationRecord</text>
</g>
<!-- User -->
<g id="node8" class="node">
<title>User</title>
<path fill="none" stroke="black" d="M482.5,-248.5C482.5,-248.5 603.5,-248.5 603.5,-248.5 609.5,-248.5 615.5,-254.5 615.5,-260.5 615.5,-260.5 615.5,-342.5 615.5,-342.5 615.5,-348.5 609.5,-354.5 603.5,-354.5 603.5,-354.5 482.5,-354.5 482.5,-354.5 476.5,-354.5 470.5,-348.5 470.5,-342.5 470.5,-342.5 470.5,-260.5 470.5,-260.5 470.5,-254.5 476.5,-248.5 482.5,-248.5"/>
<text text-anchor="middle" x="543" y="-339.3" font-family="Times,serif" font-size="14.00">User</text>
<polyline fill="none" stroke="black" points="470.5,-331.5 615.5,-331.5 "/>
<text text-anchor="start" x="478.5" y="-316.3" font-family="Times,serif" font-size="14.00">id :bigint</text>
<text text-anchor="start" x="478.5" y="-301.3" font-family="Times,serif" font-size="14.00">email :varchar(255)</text>
<text text-anchor="start" x="478.5" y="-286.3" font-family="Times,serif" font-size="14.00">password :varchar(255)</text>
<text text-anchor="start" x="478.5" y="-271.3" font-family="Times,serif" font-size="14.00">created_at :datetime</text>
<text text-anchor="start" x="478.5" y="-256.3" font-family="Times,serif" font-size="14.00">updated_at :datetime</text>
</g>
<!-- User&#45;&gt;Payment -->
<g id="edge5" class="edge">
<title>User&#45;&gt;Payment</title>
<path fill="none" stroke="#e76ebe" d="M463.19,-259.77C426.46,-239.08 383.49,-211.98 349,-182 341.21,-175.23 333.59,-167.59 326.38,-159.69"/>
<ellipse fill="none" stroke="#e76ebe" cx="466.96" cy="-261.87" rx="4" ry="4"/>
<polygon fill="#e76ebe" stroke="#e76ebe" points="325.95,-159.2 322.68,-148.74 322.63,-155.46 319.31,-151.72 319.31,-151.72 319.31,-151.72 322.63,-155.46 315.95,-154.71 325.95,-159.2 325.95,-159.2"/>
</g>
<!-- User&#45;&gt;ParkingSpot -->
<g id="edge6" class="edge">
<title>User&#45;&gt;ParkingSpot</title>
<path fill="none" stroke="#cf61c2" d="M509.13,-241.16C500.11,-225.35 490.11,-207.83 480.24,-190.53"/>
<ellipse fill="none" stroke="#cf61c2" cx="511.3" cy="-244.95" rx="4" ry="4"/>
<polygon fill="#cf61c2" stroke="#cf61c2" points="480.04,-190.19 479,-179.28 477.57,-185.85 475.09,-181.51 475.09,-181.51 475.09,-181.51 477.57,-185.85 471.18,-183.74 480.04,-190.19 480.04,-190.19"/>
</g>
<!-- User&#45;&gt;Vehicle -->
<g id="edge4" class="edge">
<title>User&#45;&gt;Vehicle</title>
<path fill="none" stroke="#9bee13" d="M552.52,-240.32C556.42,-215.68 560.96,-187.02 565,-161.5"/>
<ellipse fill="none" stroke="#9bee13" cx="551.87" cy="-244.47" rx="4" ry="4"/>
<polygon fill="#9bee13" stroke="#9bee13" points="565.02,-161.39 571.02,-152.22 565.8,-156.46 566.58,-151.52 566.58,-151.52 566.58,-151.52 565.8,-156.46 562.14,-150.81 565.02,-161.39 565.02,-161.39"/>
</g>
<!-- User&#45;&gt;Profile -->
<g id="edge3" class="edge">
<title>User&#45;&gt;Profile</title>
<path fill="none" stroke="#f1d767" d="M597.26,-242.48C615.54,-222.94 636.36,-200.68 656.28,-179.38"/>
<ellipse fill="none" stroke="#f1d767" cx="594.44" cy="-245.5" rx="4" ry="4"/>
<ellipse fill="#f1d767" stroke="#f1d767" cx="659.14" cy="-176.32" rx="4" ry="4"/>
</g>
</g>
</svg>
